<?xml version="1.0" encoding="UTF-8" standalone="no"?>
<!DOCTYPE svg PUBLIC "-//W3C//DTD SVG 1.1//EN" "http://www.w3.org/Graphics/SVG/1.1/DTD/svg11.dtd">
<svg width="100%" height="100%" viewBox="0 0 1024 1024" version="1.1" xmlns="http://www.w3.org/2000/svg" xmlns:xlink="http://www.w3.org/1999/xlink" xml:space="preserve" xmlns:serif="http://www.serif.com/" style="fill-rule:evenodd;clip-rule:evenodd;stroke-linejoin:round;stroke-miterlimit:2;">
    <path id="Email" d="M155.395,182C90.58,182 37.395,235.186 37.395,300L37.395,724C37.395,788.814 90.58,842 155.395,842L868.605,842C933.42,842 986.605,788.814 986.605,724L986.605,300C986.605,235.186 933.42,182 868.605,182L155.395,182ZM155.395,242L868.605,242C872.27,242 875.831,242.372 879.295,243C849.797,309.194 802.025,367.569 742.756,409.141C675.828,456.084 593.749,482 512,482C430.251,482 348.172,456.084 281.244,409.141C221.975,367.569 174.203,309.194 144.705,243C148.169,242.372 151.73,242 155.395,242ZM99.004,286.752C133.213,354.904 184.231,414.386 246.789,458.264C324.033,512.442 417.65,542 512,542C606.35,542 699.967,512.442 777.211,458.264C839.769,414.386 890.787,354.904 924.996,286.752C925.97,291.014 926.605,295.412 926.605,300L926.605,724C926.605,756.388 900.993,782 868.605,782L155.395,782C123.007,782 97.395,756.388 97.395,724L97.395,300C97.395,295.412 98.03,291.014 99.004,286.752Z" style="fill-rule:nonzero;"/>
</svg>
