<?xml version="1.0" encoding="UTF-8" standalone="no"?>
<!DOCTYPE svg PUBLIC "-//W3C//DTD SVG 1.1//EN" "http://www.w3.org/Graphics/SVG/1.1/DTD/svg11.dtd">
<svg width="100%" height="100%" viewBox="0 0 1024 1024" version="1.1" xmlns="http://www.w3.org/2000/svg" xmlns:xlink="http://www.w3.org/1999/xlink" xml:space="preserve" xmlns:serif="http://www.serif.com/" style="fill-rule:evenodd;clip-rule:evenodd;stroke-linejoin:round;stroke-miterlimit:2;">
    <g transform="matrix(0.952129,0,0,0.952129,0,0)">
        <circle cx="512" cy="512" r="512" style="fill:white;"/>
    </g>
    <g id="Seixo" transform="matrix(0.952129,0,0,0.952129,0,0)">
        <path d="M511.68,67.285C489.111,67.359 466.548,69.133 444.246,72.588C431.753,74.524 419.342,76.986 407.056,79.966C398.111,82.135 391.223,91.651 391.391,100.855C393.499,216.967 373.306,333.456 332.166,442.06C290.789,551.288 228.255,652.45 149.109,738.344C142.601,745.406 141.364,757.602 146.846,765.486C178.905,811.589 219.752,851.572 266.575,882.574C338.749,930.362 425.119,956.412 511.68,956.5C598.241,956.412 684.611,930.362 756.785,882.574C803.609,851.572 844.456,811.589 876.514,765.486C881.996,757.602 880.759,745.406 874.252,738.344C795.105,652.45 732.571,551.288 691.195,442.06C650.055,333.456 629.861,216.967 631.97,100.855C632.137,91.651 625.249,82.135 616.304,79.966C604.018,76.986 591.607,74.524 579.115,72.588C556.812,69.133 534.249,67.359 511.68,67.285Z"/>
    </g>
</svg>
